<svg width="512" height="512" viewBox="0 0 512 512" xmlns="http://www.w3.org/2000/svg" fill="none">
  <defs>
    <linearGradient id="g1" x1="78" y1="430" x2="434" y2="82" gradientUnits="userSpaceOnUse">
      <stop stop-color="#1F67FF"/>
      <stop offset="1" stop-color="#11C69A"/>
    </linearGradient>
    <linearGradient id="g2" x1="136" y1="390" x2="382" y2="180" gradientUnits="userSpaceOnUse">
      <stop stop-color="#0A2B6E"/>
      <stop offset="1" stop-color="#11C69A"/>
    </linearGradient>
  </defs>

  <path d="M256 66 84 184c-17 11-26 29-26 49v141c0 34 28 62 62 62h272c34 0 62-28 62-62V233c0-20-9-38-26-49L256 66Z" stroke="url(#g1)" stroke-width="34" stroke-linecap="round" stroke-linejoin="round"/>

  <path d="M134 325 212 252c9-9 24-9 33 0l36 36 94-89" stroke="url(#g2)" stroke-width="30" stroke-linecap="round" stroke-linejoin="round"/>
  <path d="m375 206 31-7-7 31" stroke="#11C69A" stroke-width="30" stroke-linecap="round" stroke-linejoin="round"/>

  <text x="256" y="228" text-anchor="middle" font-size="128" font-family="Inter, Segoe UI, Arial, sans-serif" font-weight="700" fill="#0A2B6E">$</text>
</svg>
